<?xml version="1.0" encoding="utf-8"?>
<!-- Generator: Adobe Illustrator 18.1.1, SVG Export Plug-In . SVG Version: 6.00 Build 0)  -->
<svg version="1.1" id="Layer_1" xmlns="http://www.w3.org/2000/svg" xmlns:xlink="http://www.w3.org/1999/xlink" x="0px" y="0px"
	 viewBox="-447 249 64 64" enable-background="new -447 249 64 64" xml:space="preserve">
<path fill="#31B2D2" d="M-439.3,290.9c-2.6,4.4-3.4,8.9-3.7,13.7c-0.1,2.2,0.7,4.4,2.2,6c1.5,1.6,3.6,2.5,5.8,2.5h39.9
	c2.2,0,4.3-0.9,5.8-2.5c1.5-1.6,2.3-3.7,2.2-5.9c-0.2-4.4-1-8.7-3.2-12.8c-3.5-6.4-9.3-11.1-16.1-13.3c4.4-2.8,7.4-7.8,7.4-13.4
	c0-8.8-7.2-16-16-16c-8.8,0-16,7.2-16,16c0,5.6,2.9,10.6,7.4,13.4C-430.1,280.5-435.8,284.9-439.3,290.9z M-427,265
	c0-6.6,5.4-12,12-12c6.6,0,12,5.4,12,12s-5.4,12-12,12C-421.6,277-427,271.6-427,265z M-416.5,281.1L-416.5,281.1l-5.2,14.3
	c-0.2,0.5-0.1,1.1,0.3,1.5l5.3,5.2c0.5,0.5,1.4,0.5,2,0l5.3-5.2c0.4-0.4,0.5-1,0.3-1.5l-5.2-14.3h0c8.2,0.5,15.9,5.4,19.8,12.6
	c1.6,3,2.5,6.5,2.7,11.1c0.1,1.1-0.3,2.2-1.1,3c-0.8,0.8-1.8,1.3-2.9,1.3H-435c-1.1,0-2.2-0.5-2.9-1.3c-0.8-0.8-1.2-1.9-1.1-3
	c0.3-5,1.3-8.6,3.2-11.9C-431.8,286-424.4,281.6-416.5,281.1z"/>
</svg>
