<?xml version="1.0" encoding="utf-8"?>
<!-- Generator: Adobe Illustrator 18.1.1, SVG Export Plug-In . SVG Version: 6.00 Build 0)  -->
<svg version="1.1" id="Layer_1" xmlns="http://www.w3.org/2000/svg" xmlns:xlink="http://www.w3.org/1999/xlink" x="0px" y="0px"
	 viewBox="-447 249 64 64" enable-background="new -447 249 64 64" xml:space="preserve">
<path fill="#31B2D2" d="M-390,275c1.7,0,3,1.3,3,3s-1.3,3-3,3s-3-1.3-3-3S-391.7,275-390,275z M-393,269c-1.1,0-2,0.9-2,2s0.9,2,2,2
	s2-0.9,2-2S-391.9,269-393,269z M-395,283c0-1.1-0.9-2-2-2s-2,0.9-2,2s0.9,2,2,2S-395,284.1-395,283z M-391,297v-4h2
	c1.1,0,2-0.9,2-2s-0.9-2-2-2h-8c-1.1,0-2,0.9-2,2s0.9,2,2,2h2v4l-5.7,11.4c-0.5,1-0.4,2.2,0.1,3.1s1.6,1.5,2.7,1.5h9.6
	c1.1,0,2.1-0.6,2.7-1.5c0.6-0.9,0.6-2.1,0.1-3.1L-391,297z M-439.8,292.9c-1.9,3.2-2.9,6.9-3.2,11.9c-0.1,1.1,0.3,2.2,1.1,3
	c0.8,0.8,1.8,1.3,2.9,1.3h32v4l-32,0c-2.2,0-4.3-0.9-5.8-2.5c-1.5-1.6-2.3-3.8-2.2-6c0.3-4.7,1.1-9.3,3.7-13.7
	c3.5-6,9.2-10.3,15.6-12.4c-4.4-2.8-7.4-7.8-7.4-13.4c0-8.8,7.2-16,16-16s16,7.2,16,16c0,5.6-2.9,10.6-7.4,13.4c3,1,5.8,2.5,8.3,4.4
	l-2.5,3.1c-4.1-3.1-9.2-4.9-14.5-4.9C-427.5,281-435.5,285.6-439.8,292.9z M-419,277c6.6,0,12-5.4,12-12s-5.4-12-12-12
	s-12,5.4-12,12C-431,271.6-425.6,277-419,277z"/>
</svg>
